<?xml version="1.0" encoding="UTF-8"?>
<!DOCTYPE svg PUBLIC "-//W3C//DTD SVG 1.1//EN" "http://www.w3.org/Graphics/SVG/1.1/DTD/svg11.dtd">
<!-- Creator: CorelDRAW 2019 (64-Bit) -->
<svg xmlns="http://www.w3.org/2000/svg" xml:space="preserve" width="1.94803in" height="1.08583in" version="1.1" style="shape-rendering:geometricPrecision; text-rendering:geometricPrecision; image-rendering:optimizeQuality; fill-rule:evenodd; clip-rule:evenodd"
viewBox="0 0 1948.03 1085.83"
 xmlns:xlink="http://www.w3.org/1999/xlink"
 xmlns:xodm="http://www.corel.com/coreldraw/odm/2003">
 <defs>
  <style type="text/css">
   <![CDATA[
    .fil0 {fill:#9A3412;fill-rule:nonzero}
   ]]>
  </style>
 </defs>
 <g id="Layer_x0020_1">
  <metadata id="CorelCorpID_0Corel-Layer"/>
  <path class="fil0" d="M839.67 793.97c-10.52,-17.53 -30.39,-98.19 -35.07,-139.1 -3.51,-36.24 -17.54,-37.41 -23.38,-4.68 -21.04,105.2 -31.56,133.26 -59.62,160.15 -25.72,25.72 -247.82,56.11 -340.17,1.17 -30.39,-18.7 -40.91,-63.12 -38.57,-190.54 49.1,-7.02 105.2,-14.03 128.59,-15.2 12.86,-1.17 23.38,7.01 26.88,12.86 5.85,10.52 12.86,16.37 21.04,16.37 15.2,0 42.08,-29.22 59.61,-68.97 21.04,-47.93 45.59,-132.09 53.77,-164.82 10.52,-42.08 31.57,-79.49 44.43,-90.01 29.22,-23.38 31.56,-33.9 15.2,-51.43 -14.03,-15.2 -54.94,-38.57 -84.17,-51.43 -26.89,-11.69 -31.56,-12.86 -70.14,4.68 -10.52,3.5 -91.18,19.87 -189.37,36.24 1.17,-45.59 9.35,-123.91 16.37,-147.29 15.19,-52.6 5.84,-63.12 -45.59,-85.33 -80.66,-33.9 -86.5,-12.86 -56.11,47.93 15.2,30.39 26.89,79.49 28.06,194.04 -73.64,12.86 -151.96,24.55 -210.41,32.73 -92.35,-39.74 -98.19,-7.02 -65.46,24.55 16.37,15.2 52.6,139.1 87.67,303.93 5.84,28.06 19.87,54.94 32.73,54.94 10.52,0 16.37,-9.35 17.54,-30.39 25.72,-1.17 61.95,-4.68 136.76,-16.37 -2.34,169.5 16.37,218.59 106.37,260.67 94.69,43.25 289.9,37.41 397.44,-16.37 56.11,-28.05 65.46,-45.59 45.59,-78.32zm-272.37 -495.63c0,36.24 -21.04,158.98 -40.91,224.44 -17.53,60.78 -22.21,63.12 -40.91,53.77 -16.36,-8.18 -38.57,-11.69 -142.61,7.01 1.17,-29.22 2.34,-75.98 2.34,-127.41 39.74,-7.01 84.17,-16.37 108.71,-23.38 26.89,-7.02 32.73,-29.22 0,-39.74 -22.21,-7.02 -38.57,-7.02 -107.54,12.86 1.17,-42.08 2.34,-84.17 2.34,-122.74 68.97,-12.86 135.6,-19.87 180.02,-19.87 30.39,0 38.57,5.84 38.57,35.07zm-275.87 167.16c0,45.59 -1.17,92.35 -1.17,126.25 -51.43,9.35 -93.52,16.37 -137.93,19.87 -10.52,-71.3 -33.9,-204.56 -50.26,-289.9 43.25,-2.33 101.7,-9.35 189.37,-26.89 0,32.73 0,78.32 0,127.42 -39.74,10.52 -67.8,16.36 -93.52,19.87 -23.38,3.51 -24.55,17.54 -1.17,24.55 18.7,5.85 38.57,7.02 94.69,-1.17zm1294.03 -348.34c19.87,-14.03 17.53,-37.41 -44.42,-73.64 -54.94,-29.22 -63.12,-29.22 -95.85,-16.37 -31.56,15.2 -135.6,32.73 -205.74,35.07 -45.59,-26.89 -71.31,4.68 -50.26,24.55 26.89,30.39 56.11,98.19 70.14,171.83 4.67,36.24 36.24,43.25 38.57,9.35 111.05,-16.36 141.44,-15.19 148.46,-10.52 29.22,21.04 39.74,17.54 56.11,-11.69 9.35,-16.37 21.04,-43.25 25.72,-56.11 3.51,-10.52 32.73,-56.11 57.28,-72.47zm323.8 11.69c17.54,-11.69 19.87,-26.89 -18.7,-63.12 -44.42,-44.42 -65.46,-33.9 -61.95,3.51 3.51,23.38 -14.03,63.12 -35.07,97.02 -43.25,72.48 -75.98,113.39 -126.25,162.48 -21.04,23.38 -12.86,32.73 9.35,19.87 65.46,-40.91 107.54,-79.49 164.82,-149.62 43.25,-53.77 51.43,-61.96 67.8,-70.14zm-296.91 215.09c-42.08,-26.89 -54.94,-24.55 -108.71,-11.69 -28.06,7.01 -61.95,14.03 -95.85,19.87 3.51,-47.93 -15.2,-64.29 -53.78,-71.3 -29.22,-4.68 -35.07,9.35 -25.72,23.38 10.52,15.2 24.55,29.22 45.59,52.6 -63.12,8.18 -136.77,17.53 -222.1,26.89 -54.94,5.84 -86.5,8.18 -100.53,7.01 -32.73,-3.51 -40.91,10.52 -8.18,30.39 26.89,16.37 40.91,18.7 115.72,1.17 36.24,-5.85 129.75,-24.55 155.47,-28.06 121.57,-14.03 197.56,-19.87 237.3,-18.7 75.98,2.34 79.49,-19.87 60.79,-31.56zm294.57 33.9c10.52,-7.01 12.86,-17.54 -19.87,-49.09 -40.91,-38.57 -53.77,-32.73 -53.77,1.17 0,18.7 -21.04,56.11 -46.76,90.01 -50.26,66.63 -100.53,116.89 -153.13,158.98 -22.21,15.2 -16.37,30.39 9.35,17.53 66.63,-31.56 147.29,-94.68 190.54,-146.11 19.87,-26.89 57.28,-61.96 73.64,-72.48zm-370.56 115.72c11.69,-8.18 11.69,-18.7 -29.22,-49.09 -21.04,-17.54 -35.07,-17.54 -70.14,-3.51 -26.89,11.69 -128.59,31.56 -192.88,33.9 -49.1,-23.38 -60.79,-14.03 -43.25,17.53 4.68,10.52 15.2,37.41 43.25,107.54 11.69,36.24 39.74,40.91 39.74,7.02 17.53,-2.34 31.56,-4.68 45.59,-5.85 11.69,17.54 16.37,31.56 19.87,49.09 4.67,22.21 4.67,85.33 -1.17,108.71 -7.02,35.07 -16.37,36.24 -54.94,26.89 -17.54,-3.51 -22.21,8.18 -12.86,19.87 17.54,21.04 29.22,44.42 36.24,64.29 16.37,35.07 23.38,38.57 51.43,12.86 31.57,-29.22 38.58,-64.29 35.07,-143.78 -2.34,-42.08 -2.34,-91.18 -2.34,-97.02 0,-11.69 -2.34,-21.04 -32.74,-46.76 70.14,-8.19 108.72,-12.86 113.39,-11.69 7.01,1.17 12.86,-8.18 8.18,-22.21 -2.34,-5.84 0,-18.7 11.69,-33.9 9.35,-14.03 21.04,-25.72 35.07,-33.9zm40.91 223.27c-7.01,-37.41 -29.22,-57.28 -91.18,-63.12 -35.07,-3.51 -38.57,7.02 -21.04,25.72 19.87,21.04 43.25,42.08 56.11,52.6 35.07,31.56 61.95,15.2 56.11,-15.2zm-376.4 23.38c5.85,-28.06 2.34,-64.3 -1.17,-77.15 -8.18,-24.55 -21.04,-25.72 -31.56,-1.17 -3.5,8.19 -18.7,39.74 -30.39,60.79 -21.04,33.9 -24.55,43.25 -16.37,71.3 7.01,28.06 18.7,32.73 42.08,18.7 9.35,-5.85 32.73,-50.26 37.41,-72.47zm736.44 -121.57c12.86,-9.35 14.03,-21.04 -25.72,-57.28 -44.42,-42.08 -70.14,-39.74 -64.29,2.34 3.5,28.06 -11.69,60.78 -49.1,113.39 -107.54,148.46 -142.61,178.85 -358.86,323.8 -19.87,16.36 -14.03,31.56 9.35,21.04 174.17,-68.97 296.91,-151.96 425.5,-328.47 24.55,-37.41 52.6,-67.8 63.12,-74.81zm-446.54 -529.53c-3.51,40.91 -8.18,71.31 -24.55,116.89 -8.19,26.89 -16.37,28.06 -40.91,18.7 -8.18,-2.34 -25.72,-1.17 -130.93,16.37 -3.51,-24.55 -8.19,-47.93 -12.86,-70.14 36.24,1.17 66.63,-1.17 126.25,-14.03 30.39,-7.02 28.06,-19.87 4.68,-26.89 -14.03,-3.51 -44.43,-1.17 -134.43,19.87 -4.68,-23.38 -10.52,-45.59 -15.2,-61.95 75.98,-8.18 166,-19.87 196.39,-23.38 26.89,-3.51 33.9,5.85 31.56,24.55zm-35.07 410.3c-10.52,45.59 -14.03,49.09 -36.24,56.11 -19.87,5.84 -78.32,16.36 -139.11,25.72 -7.02,-33.9 -11.69,-59.62 -16.37,-81.83 70.14,-7.02 132.09,-16.37 163.66,-21.04 25.72,-2.33 32.73,0 28.06,21.04z"/>
  <path class="fil0" d="M962.02 36.56l0 68.77 6.61 0c1.22,0 2.08,0.22 2.6,0.68 0.5,0.44 0.76,1.04 0.76,1.78 0,0.7 -0.26,1.28 -0.76,1.76 -0.52,0.46 -1.38,0.7 -2.6,0.7l-11.54 0 0 -9.82c-5.71,7.83 -12.98,11.74 -21.78,11.74 -4.47,0 -8.74,-1.19 -12.83,-3.55 -4.09,-2.37 -7.33,-5.73 -9.7,-10.12 -2.36,-4.37 -3.55,-8.88 -3.55,-13.55 0,-4.69 1.19,-9.2 3.55,-13.57 2.37,-4.35 5.61,-7.73 9.7,-10.12 4.09,-2.38 8.38,-3.57 12.89,-3.57 8.61,0 15.85,3.89 21.72,11.69l0 -27.91 -6.61 0c-1.22,0 -2.08,-0.22 -2.6,-0.68 -0.5,-0.46 -0.76,-1.06 -0.76,-1.78 0,-0.7 0.26,-1.28 0.76,-1.76 0.52,-0.46 1.38,-0.7 2.6,-0.7l11.54 0zm-4.93 48.39c0,-6.25 -2.1,-11.54 -6.33,-15.85 -4.23,-4.31 -9.26,-6.45 -15.09,-6.45 -5.89,0 -10.94,2.15 -15.17,6.45 -4.23,4.31 -6.33,9.6 -6.33,15.85 0,6.21 2.11,11.5 6.33,15.81 4.22,4.33 9.28,6.49 15.17,6.49 5.83,0 10.86,-2.17 15.09,-6.49 4.23,-4.31 6.33,-9.6 6.33,-15.81zm-16.71 85.4l0 12.62 -7.33 0 0 -12.62 7.33 0zm0.12 25.25l0 45.93 19.24 0c1.22,0 2.08,0.22 2.6,0.68 0.5,0.44 0.76,1.04 0.76,1.78 0,0.7 -0.26,1.28 -0.76,1.76 -0.52,0.46 -1.38,0.7 -2.6,0.7l-43.52 0c-1.16,0 -1.98,-0.24 -2.48,-0.7 -0.5,-0.48 -0.76,-1.06 -0.76,-1.76 0,-0.74 0.26,-1.34 0.76,-1.78 0.5,-0.46 1.32,-0.68 2.48,-0.68l19.36 0 0 -41 -14.31 0c-1.18,0 -2.04,-0.24 -2.56,-0.7 -0.54,-0.46 -0.8,-1.04 -0.8,-1.74 0,-0.72 0.26,-1.32 0.76,-1.78 0.52,-0.46 1.39,-0.7 2.61,-0.7l19.24 0zm11.54 187.05l0 -7.11c-7.19,6.03 -14.87,9.04 -23.04,9.04 -5.93,0 -10.56,-1.5 -13.91,-4.49 -3.35,-2.99 -5.01,-6.65 -5.01,-11 0,-4.77 2.2,-8.91 6.59,-12.48 4.41,-3.55 10.84,-5.33 19.28,-5.33 2.28,0 4.75,0.14 7.43,0.44 2.67,0.3 5.55,0.74 8.65,1.38l0 -8c0,-2.7 -1.26,-5.07 -3.76,-7.05 -2.53,-2 -6.29,-3.01 -11.34,-3.01 -3.85,0 -9.26,1.12 -16.21,3.37 -1.28,0.4 -2.09,0.6 -2.44,0.6 -0.64,0 -1.19,-0.24 -1.63,-0.7 -0.46,-0.46 -0.68,-1.06 -0.68,-1.76 0,-0.66 0.2,-1.18 0.58,-1.58 0.56,-0.58 2.78,-1.38 6.67,-2.39 6.11,-1.64 10.76,-2.46 13.89,-2.46 6.25,0 11.12,1.54 14.61,4.61 3.51,3.07 5.25,6.53 5.25,10.4l0 32.6 6.61 0c1.22,0 2.08,0.22 2.61,0.68 0.5,0.44 0.76,1.04 0.76,1.78 0,0.7 -0.26,1.28 -0.76,1.76 -0.52,0.46 -1.39,0.7 -2.61,0.7l-11.54 0zm0 -24.5c-2.32,-0.69 -4.77,-1.17 -7.37,-1.48 -2.59,-0.3 -5.33,-0.46 -8.2,-0.46 -7.19,0 -12.8,1.54 -16.85,4.63 -3.07,2.3 -4.61,5.07 -4.61,8.25 0,2.99 1.16,5.47 3.51,7.52 2.34,2.02 5.75,3.05 10.24,3.05 4.29,0 8.26,-0.84 11.94,-2.55 3.67,-1.7 7.45,-4.41 11.34,-8.11l0 -10.84zm-19.54 -52.24l13.87 11.96 1.28 1.46c0.12,0.18 0.18,0.5 0.18,0.92 0,0.7 -0.24,1.3 -0.74,1.78 -0.48,0.5 -1.08,0.74 -1.78,0.74 -0.58,0 -1.32,-0.38 -2.22,-1.17l-13.86 -11.96c-0.98,-0.84 -1.46,-1.64 -1.46,-2.39 0,-0.7 0.24,-1.3 0.74,-1.78 0.48,-0.5 1.08,-0.74 1.78,-0.74 0.58,0 1.32,0.38 2.22,1.16zm-10.64 162.08l0 7.57c3.44,-3.51 6.55,-5.91 9.33,-7.26 2.79,-1.34 5.91,-2 9.4,-2 3.75,0 7.17,0.8 10.26,2.41 2.2,1.16 4.19,3.13 5.97,5.83 1.78,2.72 2.67,5.51 2.67,8.35l0 31.02 4.09 0c1.2,0 2.06,0.22 2.59,0.68 0.52,0.44 0.78,1.04 0.78,1.78 0,0.7 -0.26,1.28 -0.78,1.76 -0.52,0.46 -1.39,0.7 -2.59,0.7l-13.11 0c-1.22,0 -2.08,-0.24 -2.6,-0.7 -0.5,-0.48 -0.76,-1.06 -0.76,-1.76 0,-0.74 0.26,-1.34 0.76,-1.78 0.52,-0.46 1.38,-0.68 2.6,-0.68l4.09 0 0 -30.24c0,-3.49 -1.26,-6.43 -3.81,-8.84 -2.55,-2.4 -5.95,-3.61 -10.22,-3.61 -3.24,0 -6.07,0.66 -8.46,1.96 -2.38,1.32 -5.79,4.59 -10.22,9.82l0 30.9 5.41 0c1.2,0 2.06,0.22 2.58,0.68 0.52,0.44 0.78,1.04 0.78,1.78 0,0.7 -0.26,1.28 -0.78,1.76 -0.52,0.46 -1.38,0.7 -2.58,0.7l-15.75 0c-1.2,0 -2.06,-0.24 -2.58,-0.7 -0.52,-0.48 -0.78,-1.06 -0.78,-1.76 0,-0.74 0.26,-1.34 0.78,-1.78 0.52,-0.46 1.38,-0.68 2.58,-0.68l5.41 0 0 -41 -4.09 0c-1.2,0 -2.06,-0.22 -2.58,-0.68 -0.52,-0.46 -0.78,-1.06 -0.78,-1.78 0,-0.7 0.26,-1.28 0.78,-1.76 0.52,-0.46 1.38,-0.7 2.58,-0.7l9.02 0zm16.33 187.05l-22.93 -45.93 -1.46 0c-1.2,0 -2.07,-0.24 -2.59,-0.7 -0.52,-0.48 -0.78,-1.06 -0.78,-1.76 0,-0.5 0.14,-0.94 0.4,-1.34 0.26,-0.4 0.6,-0.7 1.02,-0.86 0.42,-0.18 1.06,-0.26 1.94,-0.26l13.46 0c1.2,0 2.06,0.22 2.58,0.68 0.52,0.46 0.78,1.06 0.78,1.78 0,0.7 -0.26,1.28 -0.78,1.76 -0.52,0.46 -1.38,0.7 -2.58,0.7l-6.51 0 20.16 40.37 19.78 -40.37 -6.49 0c-1.2,0 -2.06,-0.22 -2.58,-0.68 -0.52,-0.46 -0.78,-1.06 -0.78,-1.78 0,-0.7 0.26,-1.28 0.78,-1.76 0.52,-0.46 1.38,-0.7 2.58,-0.7l13.22 0c1.22,0 2.09,0.22 2.61,0.68 0.5,0.46 0.76,1.06 0.76,1.78 0,0.5 -0.16,0.98 -0.46,1.4 -0.32,0.44 -0.68,0.72 -1.06,0.86 -0.4,0.14 -1.48,0.2 -3.28,0.2l-31.18 63.6 6.54 0c1.2,0 2.06,0.22 2.58,0.68 0.52,0.44 0.78,1.04 0.78,1.78 0,0.7 -0.26,1.28 -0.78,1.76 -0.52,0.46 -1.38,0.7 -2.58,0.7l-27.17 0c-1.2,0 -2.06,-0.22 -2.58,-0.68 -0.52,-0.44 -0.78,-1.04 -0.78,-1.78 0,-0.74 0.26,-1.34 0.78,-1.78 0.52,-0.46 1.38,-0.68 2.58,-0.68l15.37 0 8.66 -17.67zm2.3 85.34l0 45.93 19.24 0c1.22,0 2.08,0.22 2.6,0.68 0.5,0.44 0.76,1.04 0.76,1.78 0,0.7 -0.26,1.28 -0.76,1.76 -0.52,0.46 -1.38,0.7 -2.6,0.7l-43.52 0c-1.16,0 -2,-0.24 -2.5,-0.7 -0.5,-0.48 -0.82,-1.1 -0.98,-1.89 0.16,-0.66 0.48,-1.22 0.98,-1.66 0.5,-0.46 1.34,-0.68 2.5,-0.68l19.36 0 0 -41 -14.31 0c-1.18,0 -2.04,-0.24 -2.56,-0.7 -0.54,-0.46 -0.8,-1.04 -0.8,-1.74 0,-0.72 0.26,-1.32 0.76,-1.78 0.52,-0.46 1.39,-0.7 2.61,-0.7l19.24 0zm-4.03 -9.02l-15.97 -12.08c-0.7,-0.54 -1.15,-0.98 -1.34,-1.32 -0.2,-0.34 -0.3,-0.72 -0.3,-1.14 0,-0.7 0.24,-1.3 0.74,-1.78 0.48,-0.5 1.08,-0.74 1.78,-0.74 0.52,0 1.2,0.34 2.06,1l13.02 9.94 12.93 -9.94c0.84,-0.66 1.56,-1 2.1,-1 0.66,0 1.24,0.24 1.72,0.74 0.5,0.48 0.74,1.06 0.74,1.72 0,0.82 -0.54,1.67 -1.64,2.48l-15.85 12.13zm-14.61 145.21l0 7.57c3.44,-3.51 6.55,-5.91 9.33,-7.26 2.79,-1.34 5.91,-2 9.4,-2 3.75,0 7.17,0.8 10.26,2.41 2.2,1.16 4.19,3.13 5.97,5.83 1.78,2.72 2.67,5.51 2.67,8.35l0 31.02 4.09 0c1.2,0 2.06,0.22 2.59,0.68 0.52,0.44 0.78,1.04 0.78,1.78 0,0.7 -0.26,1.28 -0.78,1.76 -0.52,0.46 -1.39,0.7 -2.59,0.7l-13.11 0c-1.22,0 -2.08,-0.24 -2.6,-0.7 -0.5,-0.48 -0.76,-1.06 -0.76,-1.76 0,-0.74 0.26,-1.34 0.76,-1.78 0.52,-0.46 1.38,-0.68 2.6,-0.68l4.09 0 0 -30.24c0,-3.49 -1.26,-6.43 -3.81,-8.84 -2.55,-2.4 -5.95,-3.61 -10.22,-3.61 -3.24,0 -6.07,0.66 -8.46,1.96 -2.38,1.32 -5.79,4.59 -10.22,9.82l0 30.9 5.41 0c1.2,0 2.06,0.22 2.58,0.68 0.52,0.44 0.78,1.04 0.78,1.78 0,0.7 -0.26,1.28 -0.78,1.76 -0.52,0.46 -1.38,0.7 -2.58,0.7l-15.75 0c-1.2,0 -2.06,-0.24 -2.58,-0.7 -0.52,-0.48 -0.78,-1.06 -0.78,-1.76 0,-0.74 0.26,-1.34 0.78,-1.78 0.52,-0.46 1.38,-0.68 2.58,-0.68l5.41 0 0 -41 -4.09 0c-1.2,0 -2.06,-0.22 -2.58,-0.68 -0.52,-0.46 -0.78,-1.06 -0.78,-1.78 0,-0.7 0.26,-1.28 0.78,-1.76 0.52,-0.46 1.38,-0.7 2.58,-0.7l9.02 0zm32.58 145.27l0 -9.07 11.54 0c1.2,0 2.06,0.22 2.58,0.68 0.52,0.46 0.78,1.06 0.78,1.78 0,0.7 -0.26,1.28 -0.78,1.76 -0.52,0.46 -1.38,0.7 -2.58,0.7l-6.61 0 0 49.27c0,3.29 -0.7,6.21 -2.1,8.8 -0.94,1.72 -2.5,3.51 -4.71,5.35 -2.19,1.84 -4.19,3.15 -5.99,3.93 -1.78,0.78 -4.21,1.18 -7.21,1.18l-13.97 0c-1.18,0 -2.02,-0.22 -2.52,-0.66 -0.5,-0.44 -0.76,-1.04 -0.76,-1.78 0,-0.72 0.26,-1.32 0.76,-1.78 0.5,-0.46 1.34,-0.7 2.52,-0.7l14.15 0c2.89,0 5.51,-0.74 7.83,-2.22 2.32,-1.48 4.25,-3.65 5.79,-6.49 0.86,-1.62 1.28,-3.71 1.28,-6.25l0 -14.73c-5.29,7.22 -12.1,10.82 -20.44,10.82 -6.77,0 -12.6,-2.51 -17.51,-7.54 -4.91,-5.03 -7.37,-11.08 -7.37,-18.17 0,-7.07 2.46,-13.11 7.37,-18.11 4.91,-5.01 10.74,-7.52 17.51,-7.52 8.33,0 15.15,3.59 20.44,10.76zm0 14.87c0,-5.79 -1.98,-10.7 -5.97,-14.71 -3.97,-3.99 -8.74,-5.99 -14.25,-5.99 -5.53,0 -10.28,2 -14.25,6.03 -3.94,4.03 -5.93,8.92 -5.93,14.67 0,5.81 1.98,10.72 5.93,14.75 3.97,4.03 8.72,6.03 14.25,6.03 5.51,0 10.28,-2 14.25,-6.03 3.98,-4.03 5.97,-8.94 5.97,-14.75z"/>
 </g>
</svg>
